# xmcd
#
# Track frame offsets:
#	150
#	21622
#	42514
#	59503
#	88983
#	111233
#	126943
#	146881
#	160477
#	182819
#	200940
#	222085
#
# Disc length: 3189 seconds
# Revision: 0
# Processed by: cddbd v1.5.2PL0 Copyright (c) Steve Scherf et al.
# Submitted via: dBpowerAMP V12.0
#
DISCID=ca0c730c
DTITLE=Jack Ingram - Midnight Motel
DYEAR=2016
DGENRE=Country
TTITLE0=Old Motel
TTITLE1=It's Always Gonna Rain
TTITLE2=I Feel Like Drinking Tonight
TTITLE3=Blaine's Ferris Wheel
TTITLE4=Nothing To Fix
TTITLE5=What's A Boy To Do
TTITLE6=Trying
TTITLE7=Champion Of The World
TTITLE8=I'm Drinking Through It
TTITLE9=Can't Get Any Better Than This
TTITLE10=All Over Again
TTITLE11=Old Motel [Acoustic Version]
EXTD=
EXTT0=
EXTT1=
EXTT2=
EXTT3=
EXTT4=
EXTT5=
EXTT6=
EXTT7=
EXTT8=
EXTT9=
EXTT10=
EXTT11=
PLAYORDER=
